<?xml version="1.0" standalone="no"?><!DOCTYPE svg PUBLIC "-//W3C//DTD SVG 1.1//EN" "http://www.w3.org/Graphics/SVG/1.1/DTD/svg11.dtd"><svg t="1641658040835" class="icon" viewBox="0 0 1024 1024" version="1.1" xmlns="http://www.w3.org/2000/svg" p-id="4740" xmlns:xlink="http://www.w3.org/1999/xlink" width="200" height="200"><defs><style type="text/css"></style></defs><path d="M1024 0H0v1024h1024V0z" fill="#202425" opacity=".01" p-id="4741"></path><path d="M307.2 170.666667a34.133333 34.133333 0 0 1 34.133333-34.133334h580.266667a34.133333 34.133333 0 0 1 34.133333 34.133334v682.666666a34.133333 34.133333 0 0 1-34.133333 34.133334H341.333333a34.133333 34.133333 0 0 1-34.133333-34.133334V170.666667z" fill="#FFAA44" p-id="4742"></path><path d="M443.733333 162.6112a34.133333 34.133333 0 0 0-25.156266-32.938667l-307.2-83.797333A34.133333 34.133333 0 0 0 68.266667 78.848v866.372267a34.133333 34.133333 0 0 0 43.1104 32.938666l307.2-83.797333a34.133333 34.133333 0 0 0 25.156266-32.938667V162.6112z" fill="#11AA66" p-id="4743"></path><path d="M745.506133 319.214933a17.066667 17.066667 0 0 0-30.037333-11.127466l-165.205333 192.8192a17.066667 17.066667 0 0 0 0 22.186666l165.205333 192.8192a17.066667 17.066667 0 0 0 30.037333-11.127466V580.266667h85.333334a17.066667 17.066667 0 0 0 17.066666-17.066667v-102.4a17.066667 17.066667 0 0 0-17.066666-17.066667h-85.333334V319.214933zM341.333333 443.733333a34.133333 34.133333 0 0 0-34.133333 34.133334v68.266666a34.133333 34.133333 0 1 0 68.266667 0v-68.266666a34.133333 34.133333 0 0 0-34.133334-34.133334z" fill="#FFFFFF" p-id="4744"></path></svg>