<?xml version="1.0" standalone="no"?><!DOCTYPE svg PUBLIC "-//W3C//DTD SVG 1.1//EN" "http://www.w3.org/Graphics/SVG/1.1/DTD/svg11.dtd"><svg t="1641658010350" class="icon" viewBox="0 0 1024 1024" version="1.1" xmlns="http://www.w3.org/2000/svg" p-id="3631" xmlns:xlink="http://www.w3.org/1999/xlink" width="200" height="200"><defs><style type="text/css"></style></defs><path d="M0 0h1024v1024H0V0z" fill="#202425" opacity=".01" p-id="3632"></path><path d="M102.4 68.266667a34.133333 34.133333 0 0 0-34.133333 34.133333v273.066667a34.133333 34.133333 0 1 0 68.266666 0V136.533333h238.933334a34.133333 34.133333 0 1 0 0-68.266666H102.4z m819.2 0a34.133333 34.133333 0 0 1 34.133333 34.133333v273.066667a34.133333 34.133333 0 1 1-68.266666 0V136.533333h-238.933334a34.133333 34.133333 0 1 1 0-68.266666h273.066667zM68.266667 921.6a34.133333 34.133333 0 0 0 34.133333 34.133333h273.066667a34.133333 34.133333 0 1 0 0-68.266666H136.533333v-238.933334a34.133333 34.133333 0 1 0-68.266666 0v273.066667z m853.333333 34.133333a34.133333 34.133333 0 0 0 34.133333-34.133333v-273.066667a34.133333 34.133333 0 1 0-68.266666 0v238.933334h-238.933334a34.133333 34.133333 0 1 0 0 68.266666h273.066667z" fill="#11AA66" p-id="3633"></path><path d="M238.933333 273.066667a34.133333 34.133333 0 0 1 34.133334-34.133334h477.866666a34.133333 34.133333 0 0 1 34.133334 34.133334v204.8a34.133333 34.133333 0 0 1-34.133334 34.133333H273.066667a34.133333 34.133333 0 0 1-34.133334-34.133333V273.066667z" fill="#FFAA44" p-id="3634"></path><path d="M102.4 477.866667a34.133333 34.133333 0 1 0 0 68.266666h136.533333v204.8a34.133333 34.133333 0 0 0 34.133334 34.133334h477.866666a34.133333 34.133333 0 0 0 34.133334-34.133334v-204.8h136.533333a34.133333 34.133333 0 1 0 0-68.266666H102.4z" fill="#11AA66" p-id="3635"></path></svg>