<?xml version="1.0" standalone="no"?><!DOCTYPE svg PUBLIC "-//W3C//DTD SVG 1.1//EN" "http://www.w3.org/Graphics/SVG/1.1/DTD/svg11.dtd"><svg t="1641658064627" class="icon" viewBox="0 0 1024 1024" version="1.1" xmlns="http://www.w3.org/2000/svg" p-id="8883" xmlns:xlink="http://www.w3.org/1999/xlink" width="200" height="200"><defs><style type="text/css"></style></defs><path d="M512.8 303.9c-50 0-90.5-40.5-90.5-90.5v-62.9c0-50 40.5-90.5 90.5-90.5s90.5 40.5 90.5 90.5v62.9c0 50-40.5 90.5-90.5 90.5z" fill="#01AA7A" p-id="8884"></path><path d="M776.2 956.8H249.4c-34.8 0-63-28.2-63-63v-700c0-34.8 28.2-63 63-63h526.9c34.8 0 63 28.2 63 63v699.9c-0.1 34.8-28.3 63.1-63.1 63.1z" fill="#01AA7A" p-id="8885"></path><path d="M710.4 333.4H315.2c-21.2 0-38.3-17.2-38.3-38.3 0-21.2 17.2-38.3 38.3-38.3h395.3c21.2 0 38.3 17.2 38.3 38.3 0 21.1-17.2 38.3-38.4 38.3zM608.2 487.7h-293c-21.2 0-38.3-17.2-38.3-38.3 0-21.2 17.2-38.3 38.3-38.3h293c21.2 0 38.3 17.2 38.3 38.3 0 21.2-17.1 38.3-38.3 38.3zM458.7 642.1H315.2c-21.2 0-38.3-17.2-38.3-38.3 0-21.2 17.2-38.3 38.3-38.3h143.6c21.2 0 38.3 17.2 38.3 38.3 0 21.1-17.2 38.3-38.4 38.3z" fill="#FFD301" p-id="8886"></path><path d="M518.2 956.8h258c34.8 0 63-28.2 63-63v-258l-321 321z" fill="#EA590A" p-id="8887"></path></svg>