<?xml version="1.0" standalone="no"?><!DOCTYPE svg PUBLIC "-//W3C//DTD SVG 1.1//EN" "http://www.w3.org/Graphics/SVG/1.1/DTD/svg11.dtd"><svg t="1641483049572" class="icon" viewBox="0 0 1024 1024" version="1.1" xmlns="http://www.w3.org/2000/svg" p-id="5672" xmlns:xlink="http://www.w3.org/1999/xlink" width="200" height="200"><defs><style type="text/css"></style></defs><path d="M856.907294 169.020235h-76.016941l-13.010824-61.199059c-8.252235-38.761412-32.436706-72.071529-72.131764-72.071529H328.252235c-39.695059 0-63.879529 33.310118-72.131764 72.071529l-13.010824 61.199059H167.092706C75.173647 169.020235 0 244.193882 0 336.112941v485.074824c0 91.888941 75.173647 167.092706 167.092706 167.092706h689.814588c91.919059 0 167.092706-75.203765 167.092706-167.092706V336.112941c0-91.919059-75.173647-167.092706-167.092706-167.092706zM512 778.029176c-114.657882 0-208.173176-93.485176-208.173176-208.173176 0-114.627765 93.515294-208.143059 208.173176-208.143059s208.173176 93.485176 208.173176 208.143059-93.485176 208.173176-208.173176 208.173176z" fill="#A8A8A8" p-id="5673"></path></svg>