<?xml version="1.0" standalone="no"?><!DOCTYPE svg PUBLIC "-//W3C//DTD SVG 1.1//EN" "http://www.w3.org/Graphics/SVG/1.1/DTD/svg11.dtd"><svg t="1641659724798" class="icon" viewBox="0 0 1024 1024" version="1.1" xmlns="http://www.w3.org/2000/svg" p-id="2397" xmlns:xlink="http://www.w3.org/1999/xlink" width="200" height="200"><defs><style type="text/css"></style></defs><path d="M365.444 892.25c-51.424-21.092-97.64-52.76-136.122-92.404-72.978-75.2-118.116-179.1-118.116-293.856 0-114.74 45.136-218.638 118.116-293.838 73.57-75.8 179.368-113.7 285.176-113.7 105.79 0 211.598 37.9 285.158 113.7 72.978 75.2 118.124 179.098 118.124 293.838 0 114.756-45.146 218.656-118.124 293.856-38.472 39.646-84.696 71.314-136.112 92.404-47.602 19.514-98.322 29.298-149.046 29.298C463.758 921.548 413.054 911.764 365.444 892.25L365.444 892.25zM514.498 181.32c-84.5 0-169.002 30.268-227.746 90.82-34.976 36.032-61.944 80.33-77.924 129.802-4.412 16.614 1.472 24.458 17.638 23.56 53.006-2.098 167.23-3.772 190.694-4.988-20.152 23.552-32.366 54.47-32.366 88.324 0 36.904 14.516 70.326 37.986 94.512 8.374 8.638 17.902 16.094 28.312 22.104 19.614 11.352 41.502 17.03 63.408 17.038 21.896-0.008 43.786-5.684 63.398-17.038 10.41-6.012 19.93-13.466 28.312-22.104 23.472-24.186 37.986-57.608 37.986-94.512 0-33.854-12.224-64.774-32.358-88.324 23.454 1.216 137.678 2.89 190.676 4.988 16.166 0.898 22.058-6.946 17.638-23.56-15.97-49.472-42.94-93.77-77.924-129.802C683.484 211.588 598.992 181.32 514.498 181.32L514.498 181.32zM587.272 433.98c-37.55-38.694-108.014-38.694-145.564 0-18.62 19.188-30.142 45.708-30.142 74.99 0 29.298 11.522 55.81 30.142 75.006 7.178 7.386 15.396 13.698 24.43 18.65 30.006 16.482 66.71 16.482 96.714 0 9.024-4.952 17.252-11.264 24.42-18.65 18.63-19.196 30.15-45.708 30.15-75.006C617.424 479.688 605.902 453.168 587.272 433.98L587.272 433.98zM533.18 548.138c14.08-7.122 23.77-22.052 23.77-39.302 0-18.28-10.89-33.942-26.344-40.482-10.23-4.328-21.992-4.328-32.222 0-15.456 6.54-26.344 22.202-26.344 40.482 0 17.248 9.682 32.178 23.762 39.302C507.468 554.026 521.53 554.026 533.18 548.138L533.18 548.138zM581.336 831.506c62.116-13.504 117.638-45.454 160.892-90.026 45.188-46.562 77-106.894 89.026-174.356 4.328-18.298-3.312-23.902-16.696-23.462-26.996-0.59-54-0.476-79.738 4.522-91.694 17.812-124.488 63.408-140.714 168.372C588.214 754.682 584.466 799.3 581.336 831.506L581.336 831.506zM447.644 831.506c-3.122-32.206-6.876-76.822-12.762-114.952-16.226-104.964-49.028-150.56-140.724-168.372-25.73-4.998-52.742-5.112-79.736-4.522-13.378-0.44-21.024 5.164-16.688 23.462 12.018 67.462 43.838 127.794 89.016 174.356C330.014 786.052 385.528 818.002 447.644 831.506z" p-id="2398"></path></svg>